<?xml version="1.0" standalone="no"?>
<!DOCTYPE svg PUBLIC "-//W3C//DTD SVG 20010904//EN"
 "http://www.w3.org/TR/2001/REC-SVG-20010904/DTD/svg10.dtd">
<svg version="1.0" xmlns="http://www.w3.org/2000/svg"
 width="32.000000pt" height="32.000000pt" viewBox="0 0 32.000000 32.000000"
 preserveAspectRatio="xMidYMid meet">

<g transform="translate(0.000000,32.000000) scale(0.100000,-0.100000)"
fill="#000000" stroke="none">
<path d="M95 306 c-102 -44 -124 -181 -41 -254 140 -123 338 67 219 209 -47
55 -116 72 -178 45z m95 -26 c0 -6 14 -17 31 -24 42 -18 58 -52 49 -110 -8
-53 -4 -48 -53 -75 -39 -22 -82 -28 -91 -12 -3 4 -19 11 -36 14 -35 7 -50 37
-50 97 0 44 41 103 65 93 8 -3 18 2 21 11 7 18 64 23 64 6z"/>
</g>
</svg>
