<svg width="24" height="24" viewBox="0 0 24 24" fill="none" xmlns="http://www.w3.org/2000/svg">
<g id="icomoon-free:price-tag" clip-path="url(#clip0_30_562)">
<path id="Vector" d="M1.12496 0H10.125C10.743 0 11.6085 0.3585 12.045 0.795L23.2035 11.9535C23.4139 12.1649 23.532 12.451 23.532 12.7493C23.532 13.0475 23.4139 13.3336 23.2035 13.545L13.545 23.2035C13.3336 23.4139 13.0475 23.532 12.7492 23.532C12.451 23.532 12.1648 23.4139 11.9535 23.2035L0.79496 12.045C0.35696 11.607 -3.8147e-05 10.743 -3.8147e-05 10.125V1.125C0.00114632 0.826996 0.120054 0.541536 0.330776 0.330814C0.541498 0.120092 0.826958 0.00118492 1.12496 0ZM6.74996 9C7.04553 8.9999 7.33819 8.94159 7.61123 8.82839C7.88426 8.71518 8.13233 8.54931 8.34126 8.34024C8.55019 8.13117 8.7159 7.88299 8.82892 7.60988C8.94194 7.33677 9.00006 7.04407 8.99996 6.7485C8.99986 6.45293 8.94155 6.16027 8.82835 5.88723C8.71514 5.6142 8.54927 5.36613 8.3402 5.1572C8.13113 4.94827 7.88295 4.78256 7.60984 4.66954C7.33673 4.55652 7.04403 4.4984 6.74846 4.4985C6.15153 4.4987 5.57912 4.73602 5.15716 5.15826C4.7352 5.5805 4.49826 6.15306 4.49846 6.75C4.49866 7.34694 4.73598 7.91934 5.15822 8.3413C5.58046 8.76326 6.15302 9.0002 6.74996 9Z" fill="#636362"/>
</g>
<defs>
<clipPath id="clip0_30_562">
<rect width="24" height="24" fill="white" transform="matrix(-1 0 0 1 24 0)"/>
</clipPath>
</defs>
</svg>
