<svg width="30" height="30" viewBox="0 0 30 30" fill="none" xmlns="http://www.w3.org/2000/svg">
<g id="iconoir:people-tag" clip-path="url(#clip0_30_557)">
<g id="Group">
<path id="Vector" d="M0.75 20V10C0.75 8.3424 1.40848 6.75269 2.58058 5.58058C3.75269 4.40848 5.3424 3.75 7 3.75H17C18.6576 3.75 20.2473 4.40848 21.4194 5.58058C22.5915 6.75269 23.25 8.3424 23.25 10V20C23.25 21.6576 22.5915 23.2473 21.4194 24.4194C20.2473 25.5915 18.6576 26.25 17 26.25H7C5.3424 26.25 3.75269 25.5915 2.58058 24.4194C1.40848 23.2473 0.75 21.6576 0.75 20Z" stroke="#636362" stroke-width="1.875"/>
<path id="Vector_2" d="M17.625 18.125C17.625 18.125 15.75 20.625 12 20.625C8.25 20.625 6.375 18.125 6.375 18.125" stroke="#636362" stroke-width="1.875" stroke-linecap="round" stroke-linejoin="round"/>
<path id="Vector_3" d="M7.625 12.5C7.45924 12.5 7.30027 12.4342 7.18306 12.3169C7.06585 12.1997 7 12.0408 7 11.875C7 11.7092 7.06585 11.5503 7.18306 11.4331C7.30027 11.3158 7.45924 11.25 7.625 11.25C7.79076 11.25 7.94973 11.3158 8.06694 11.4331C8.18415 11.5503 8.25 11.7092 8.25 11.875C8.25 12.0408 8.18415 12.1997 8.06694 12.3169C7.94973 12.4342 7.79076 12.5 7.625 12.5ZM16.375 12.5C16.2092 12.5 16.0503 12.4342 15.9331 12.3169C15.8158 12.1997 15.75 12.0408 15.75 11.875C15.75 11.7092 15.8158 11.5503 15.9331 11.4331C16.0503 11.3158 16.2092 11.25 16.375 11.25C16.5408 11.25 16.6997 11.3158 16.8169 11.4331C16.9342 11.5503 17 11.7092 17 11.875C17 12.0408 16.9342 12.1997 16.8169 12.3169C16.6997 12.4342 16.5408 12.5 16.375 12.5Z" fill="#636362" stroke="#636362" stroke-width="1.875" stroke-linecap="round" stroke-linejoin="round"/>
</g>
</g>
<defs>
<clipPath id="clip0_30_557">
<rect width="30" height="30" fill="white"/>
</clipPath>
</defs>
</svg>
